<svg width="32" height="32" viewBox="0 0 32 32" fill="none" xmlns="http://www.w3.org/2000/svg">
    <g clip-path="url(#clip0_8_291)">
    <path d="M26.9276 16.2161V16.2162L19.5122 23.2195L30.0488 32V13.2683L26.9276 16.2161Z" fill="#D80027"/>
    <path d="M1.95123 13.2683V32L12.4878 23.2195L1.95123 13.2683Z" fill="#FF5023"/>
    <path d="M12.4878 23.2195L1.95123 32H16V26.5366L12.4878 23.2195Z" fill="#D80027"/>
    <path d="M16 26.5366V32H30.0488L19.5122 23.2195L16 26.5366Z" fill="#A2001D"/>
    <path d="M5.07264 10.3203L1.95123 13.2683H5.0724L5.07264 10.3203Z" fill="#FF5023"/>
    <path d="M30.0488 13.2683L26.9272 10.3202L26.9275 13.2683H30.0488Z" fill="#FF5023"/>
    <path d="M16 0L11.0215 4.70189L20.9659 4.69011L16 0Z" fill="#FF5023"/>
    <path d="M26.9276 16.2161L30.0488 13.2683H26.9275L26.9276 16.2161Z" fill="#A2001D"/>
    <path d="M16 26.5366L5.07209 16.2158L5.0724 13.2683H1.95123L12.4878 23.2195L16 26.5366Z" fill="#A2001D"/>
    <path d="M5.07208 16.2158L16 26.5366L19.5122 23.2195L26.9276 16.2162V16.2161L26.9275 13.2683L26.9272 10.3202L26.9268 4.68292L20.9659 4.6901L11.0215 4.70189L5.07318 4.70899L5.07263 10.3203L5.07239 13.2683L5.07208 16.2158ZM8.97561 14.0488H23.0244V16.3902H8.97561V14.0488ZM8.97561 11.7073V9.36585H23.0244V11.7073H8.97561Z" fill="#DEDDE0"/>
    <path d="M23.0244 9.36584H8.97562V11.7073H23.0244V9.36584Z" fill="white"/>
    <path d="M23.0244 14.0488H8.97562V16.3902H23.0244V14.0488Z" fill="white"/>
    </g>
    <defs>
    <clipPath id="clip0_8_291">
    <rect width="32" height="32" fill="white"/>
    </clipPath>
    </defs>
</svg>
